<svg
  width="88"
  height="43"
  viewBox="0 0 88 43"
  fill="none"
  xmlns="http://www.w3.org/2000/svg"
>
  <path
    d="M4.64539 32.7739C4.64539 33.4392 4.43424 34.0033 4.01193 34.4661C3.61778 34.9289 3.0547 35.1603 2.3227 35.1603C1.5907 35.1603 1.01354 34.9289 0.591232 34.4661C0.197077 34.0033 0 33.4392 0 32.7739C0 32.1087 0.197077 31.5446 0.591232 31.0818C1.01354 30.619 1.5907 30.3876 2.3227 30.3876C3.0547 30.3876 3.61778 30.619 4.01193 31.0818C4.43424 31.5446 4.64539 32.1087 4.64539 32.7739Z"
    fill="white"
  />
  <path
    d="M9.33698 42.6665H6.54974L20.9505 0.666504H23.6532L9.33698 42.6665Z"
    fill="white"
  />
  <path
    d="M28.8412 41.2636C27.6474 41.2636 26.5776 41.0033 25.6316 40.4826C24.6969 39.962 23.9649 39.2272 23.4356 38.2785C22.9063 37.3182 22.6417 36.2074 22.6417 34.9463C22.6417 33.6851 22.9063 32.5801 23.4356 31.6314C23.9649 30.671 24.6969 29.9306 25.6316 29.4099C26.5776 28.8777 27.6474 28.6115 28.8412 28.6115C30.4741 28.6115 31.8255 29.0512 32.8953 29.9306V31.2496C31.8818 30.3124 30.5642 29.8438 28.9425 29.8438C27.9853 29.8438 27.1294 30.052 26.3749 30.4686C25.6204 30.8851 25.0291 31.481 24.6012 32.2562C24.1733 33.0198 23.9593 33.9165 23.9593 34.9463C23.9593 35.976 24.1733 36.8785 24.6012 37.6537C25.0291 38.4173 25.6147 39.0074 26.358 39.4239C27.1125 39.8405 27.9628 40.0487 28.9087 40.0487C29.4606 40.0487 29.9955 39.9851 30.5135 39.8578C31.0315 39.719 31.4595 39.5396 31.7973 39.3198V35.5884H29.3142V34.4429H33.1149V39.8925C32.5631 40.3669 31.9325 40.714 31.223 40.9339C30.5248 41.1537 29.7308 41.2636 28.8412 41.2636Z"
    fill="white"
  />
  <path
    d="M47.7871 30.0173H44.0032V28.8719H52.8886V30.0173H49.1047V41.0033H47.7871V30.0173Z"
    fill="white"
  />
  <path d="M64.2899 28.8719H67.2798V41.0033H64.2899V28.8719Z" fill="white" />
  <path
    d="M81.6654 31.4578H78.3376V28.8719H88V31.4578H84.6553V41.0033H81.6654V31.4578Z"
    fill="white"
  />
</svg>
